<?xml version="1.0" encoding="UTF-8" standalone="no"?>
<svg
   width="650"
   height="230"
   viewBox="0 0 650 230"
   role="img"
   aria-labelledby="titleDesc"
   version="1.1"
   id="svg5"
   sodipodi:docname="logo-modo-escuro.svg"
   inkscape:version="1.3.2 (091e20e, 2023-11-25)"
   xmlns:inkscape="http://www.inkscape.org/namespaces/inkscape"
   xmlns:sodipodi="http://sodipodi.sourceforge.net/DTD/sodipodi-0.dtd"
   xmlns:xlink="http://www.w3.org/1999/xlink"
   xmlns="http://www.w3.org/2000/svg"
   xmlns:svg="http://www.w3.org/2000/svg"
   xmlns:rdf="http://www.w3.org/1999/02/22-rdf-syntax-ns#"
   xmlns:cc="http://creativecommons.org/ns#"
   xmlns:dc="http://purl.org/dc/elements/1.1/">
  <sodipodi:namedview
     id="namedview5"
     pagecolor="#ffffff"
     bordercolor="#000000"
     borderopacity="0.25"
     inkscape:showpageshadow="2"
     inkscape:pageopacity="0.0"
     inkscape:pagecheckerboard="true"
     inkscape:deskcolor="#d1d1d1"
     labelstyle="below"
     inkscape:zoom="1.3493954"
     inkscape:cx="306.43352"
     inkscape:cy="138.58058"
     inkscape:window-width="1920"
     inkscape:window-height="1040"
     inkscape:window-x="1366"
     inkscape:window-y="0"
     inkscape:window-maximized="1"
     inkscape:current-layer="svg5" />
  <title
     id="titleDesc">Ouroboros — logo dourado</title>
  <defs
     id="defs4">
    <linearGradient
       id="swatch13"
       inkscape:swatch="solid">
      <stop
         style="stop-color:#000000;stop-opacity:1;"
         offset="0"
         id="stop13" />
    </linearGradient>
    <linearGradient
       id="swatch12"
       inkscape:swatch="solid">
      <stop
         style="stop-color:#2f2f2f;stop-opacity:1;"
         offset="0"
         id="stop12" />
    </linearGradient>
    <linearGradient
       id="linearGradient10"
       x1="0"
       y1="0"
       x2="1"
       y2="1"
       inkscape:swatch="gradient">
      <stop
         offset="0"
         stop-color="#FFD700"
         id="stop7"
         style="stop-color:#e2663e;stop-opacity:0.485098;" />
      <stop
         offset="40%"
         stop-color="#FFC700"
         id="stop8" />
      <stop
         offset="70%"
         stop-color="#FFB700"
         id="stop9" />
      <stop
         offset="100%"
         stop-color="#D4AF37"
         id="stop10" />
    </linearGradient>
    <!-- Gradiente dourado -->
    <linearGradient
       id="gold"
       x1="0"
       y1="0"
       x2="1"
       y2="1">
      <stop
         offset="0%"
         stop-color="#FFD700"
         id="stop1" />
      <stop
         offset="40%"
         stop-color="#FFC700"
         id="stop2" />
      <stop
         offset="70%"
         stop-color="#FFB700"
         id="stop3" />
      <stop
         offset="100%"
         stop-color="#D4AF37"
         id="stop4" />
    </linearGradient>
    <style
       id="style4">
      .word { font-family: &quot;Inter&quot;, &quot;Poppins&quot;, sans-serif; font-weight: 700; font-size: 110px; fill: url(#gold); letter-spacing: -2px; }
      .ring { fill: none; stroke: url(#gold); stroke-width: 18; stroke-linecap: round; }
      .eye { fill: #2b1d00; }
    </style>
    <linearGradient
       inkscape:collect="always"
       xlink:href="#gold"
       id="linearGradient5"
       x1="-9"
       y1="-9"
       x2="109"
       y2="109"
       gradientUnits="userSpaceOnUse"
       gradientTransform="matrix(1.0185064,0,0,0.91653199,-1.830927,8.2102691)" />
    <linearGradient
       inkscape:collect="always"
       xlink:href="#gold"
       id="linearGradient6"
       x1="84.970581"
       y1="49.193497"
       x2="98.386993"
       y2="62.609901"
       gradientTransform="matrix(1.816095,-6.5454018e-4,-5.2362346e-4,1.3407371,-66.842575,-20.846167)"
       gradientUnits="userSpaceOnUse" />
    <linearGradient
       inkscape:collect="always"
       xlink:href="#linearGradient10"
       id="linearGradient11"
       gradientUnits="userSpaceOnUse"
       gradientTransform="matrix(2.4948291,0,0,0.39631578,-143.76589,-3.578803)"
       x1="89.149864"
       y1="167.54575"
       x2="302.87161"
       y2="381.26749" />
    <linearGradient
       inkscape:collect="always"
       xlink:href="#swatch13"
       id="linearGradient13"
       x1="75.548125"
       y1="113.4505"
       x2="641.37592"
       y2="113.4505"
       gradientUnits="userSpaceOnUse" />
  </defs>
  <!-- Ouroboros símbolo -->
  <g
     transform="matrix(0.00798369,-1.5054356,1.7098146,0.00702937,10.556595,188.77112)"
     id="g5">
    <ellipse
       class="ring"
       cx="49.094391"
       cy="54.036869"
       pathLength="1"
       id="circle4"
       style="stroke:url(#linearGradient5)"
       rx="50.925316"
       ry="45.826599"
       transform="matrix(0.99999989,-4.6751031e-4,-5.1952594e-4,0.99999987,0,0)" />
    <!-- Cabeça -->
    <path
       d="m 87.442808,54.047699 24.368982,-9.002719 -0.007,17.987875 z"
       id="path4"
       style="fill:url(#linearGradient6);stroke-width:1.56042"
       fill="url(#gold)" />
    <ellipse
       class="eye"
       cx="103.70756"
       cy="54.079227"
       id="circle5"
       rx="4.8730946"
       ry="4.4969692"
       transform="matrix(0.99999994,-3.6040634e-4,-3.9055042e-4,0.99999992,0,0)"
       style="stroke-width:1.56041" />
  </g>
  <!-- Texto -->
  <path
     d="m 108.0673,149.33856 c -4.20538,0 -8.265744,-0.47667 -12.181091,-1.43002 -3.879103,-0.95335 -7.359417,-2.47504 -10.440944,-4.56507 -3.045273,-2.09003 -5.456113,-4.80341 -7.23252,-8.14012 -1.776413,-3.37339 -2.66462,-7.48012 -2.66462,-12.32019 0,-5.31675 0.851953,-9.95516 2.55586,-13.91522 1.740153,-3.99673 4.132867,-7.31511 7.17814,-9.95515 3.045273,-2.676713 6.561841,-4.67508 10.549704,-5.9951 4.024107,-1.356687 8.320111,-2.03503 12.888021,-2.03503 4.13287,0 8.17511,0.531677 12.12672,1.59503 3.9516,1.063347 7.50442,2.731703 10.65845,5.00507 3.15403,2.273373 5.65551,5.22509 7.50442,8.85514 1.88517,3.59339 2.82776,7.93845 2.82776,13.0352 0,3.85006 -0.77945,7.55345 -2.33834,11.11017 -1.52263,3.55673 -3.75221,6.74678 -6.68872,9.57015 -2.90026,2.78671 -6.43495,5.00508 -10.60408,6.65511 -4.13287,1.68669 -8.84579,2.53003 -14.13876,2.53003 z m -0.48942,-12.15518 c 3.69783,0 6.83373,-0.56834 9.40772,-1.70503 2.57398,-1.17335 4.65854,-2.69504 6.25368,-4.56507 1.63139,-1.90669 2.80962,-3.97839 3.53469,-6.2151 0.76132,-2.2367 1.14198,-4.45507 1.14198,-6.6551 0,-3.08005 -0.59818,-5.68342 -1.79454,-7.81012 -1.1601,-2.16337 -2.71899,-3.90506 -4.67667,-5.22508 -1.92142,-1.32002 -4.07849,-2.27337 -6.4712,-2.86004 -2.39271,-0.62335 -4.83981,-0.93502 -7.34128,-0.93502 -3.26279,0 -6.34432,0.71501 -9.244581,2.14503 -2.90026,1.39336 -5.25672,3.52006 -7.06938,6.3801 -1.776416,2.82338 -2.664624,6.39844 -2.664624,10.72517 0,3.52005 0.70694,6.5451 2.12082,9.07514 1.450129,2.49337 3.589071,4.40007 6.416824,5.72009 2.827751,1.28335 6.289941,1.92503 10.386561,1.92503 z m 72.79653,11.98423 c -5.22047,0 -9.67962,-0.82501 -13.37745,-2.47503 -3.69783,-1.61336 -6.70685,-3.96006 -9.02706,-7.04011 -2.32021,-3.08005 -4.02411,-6.78344 -5.1117,-11.11017 -1.0876,-4.36341 -1.6314,-9.25848 -1.6314,-14.68523 0,-1.32002 0.0362,-2.64004 0.10876,-3.96006 0.10876,-1.35669 0.25377,-2.65837 0.43504,-3.90506 0.18127,-1.24669 0.41691,-2.36504 0.70694,-3.35505 0.65255,-2.53004 1.59514,-4.345073 2.82775,-5.445093 1.23261,-1.13668 2.71899,-1.70502 4.45915,-1.70502 1.63139,0 2.864,0.348337 3.69783,1.04501 0.83383,0.69668 1.37763,1.576693 1.6314,2.64004 0.29003,1.026693 0.45317,2.053373 0.48942,3.080053 v 2.53004 2.97004 3.02505 c 0.0363,0.95335 0.0725,1.83336 0.10875,2.64004 0.18127,4.69341 1.01386,8.61304 1.68578,12.43019 0.94259,3.55673 2.48335,6.34344 4.62229,8.36013 2.17519,1.98003 5.13517,3.16967 8.86392,2.97005 3.44097,-0.18422 4.05194,-0.79618 5.11008,-1.53408 2.32021,-1.61335 4.09661,-3.92339 5.32922,-6.9301 1.26887,-3.04338 2.21145,-6.69177 2.82776,-10.94517 0.18127,-1.10002 0.32628,-2.21837 0.43504,-3.35506 0.14501,-1.17335 0.25377,-2.3467 0.32628,-3.52005 l 0.32628,-3.52005 0.43503,-3.63006 c 0.39879,-2.38337 1.10573,-4.23507 2.12082,-5.55509 1.01509,-1.32002 2.5196,-1.98003 4.51353,-1.98003 1.74015,0 3.02714,0.586677 3.86097,1.76003 0.87008,1.136687 1.46826,2.75005 1.79454,4.84008 0.10875,1.35669 0.18126,2.71337 0.21751,4.07006 0.0363,1.32002 0.0363,2.65837 0,4.01506 0,1.35669 -0.0362,2.69504 -0.10876,4.01506 -0.0363,1.32002 -0.10877,2.64004 -0.21751,3.96006 -0.47129,6.74677 -1.92142,12.44853 -4.35039,17.10527 -2.42897,4.62007 -5.90929,8.10345 -10.44094,10.45016 -4.4954,2.38337 -5.99828,2.74409 -12.66888,2.74409 z m 46.69096,-1.31407 c -1.05134,0 -1.99392,-0.22 -2.82775,-0.66001 -0.83383,-0.40334 -1.59514,-0.97168 -2.28395,-1.70503 -0.65256,-0.73334 -1.25074,-1.59502 -1.79454,-2.58504 -0.65256,-1.39335 -1.25074,-3.00671 -1.79453,-4.84007 -0.5438,-1.83336 -1.01509,-3.74006 -1.41388,-5.72009 -0.36253,-2.01669 -0.63443,-4.01506 -0.8157,-5.99509 -0.18127,-1.98003 -0.2719,-3.8134 -0.2719,-5.50009 0,-5.97675 1.10572,-11.03683 3.31717,-15.18023 2.21145,-4.1434 5.40174,-7.296783 9.57086,-9.46015 4.16913,-2.163367 9.17208,-3.24505 15.00885,-3.24505 2.46522,0 4.82168,0.183337 7.06938,0.55001 2.28395,0.366673 4.31413,0.916683 6.09054,1.65003 1.77641,0.696673 3.17216,1.576687 4.18725,2.64004 1.05135,1.02668 1.57702,2.21836 1.57702,3.57505 0,1.10002 -0.23565,1.99837 -0.70694,2.69505 -0.47129,0.66001 -1.0876,1.13668 -1.84891,1.43002 -0.72507,0.29333 -1.48639,0.44 -2.28396,0.44 -1.66765,0 -3.49844,-0.275 -5.49237,-0.82501 -1.95767,-0.58667 -4.51353,-0.88001 -7.66756,-0.88001 -4.74917,0 -8.32012,1.48502 -10.71283,4.45507 -2.35646,2.97005 -3.53469,7.00344 -3.53469,12.10018 0,1.83337 0.0906,3.61173 0.2719,5.33509 0.18127,1.68669 0.39878,3.31838 0.65255,4.89507 0.25377,1.54003 0.50755,2.97005 0.76132,4.29007 0.25377,1.32002 0.45317,2.49337 0.59818,3.52005 0.18127,1.02669 0.2719,1.87003 0.2719,2.53004 0,2.27337 -0.50755,3.92339 -1.52264,4.95008 -0.97883,1.02668 -2.44709,1.54002 -4.40477,1.54002 z m 70.51092,1.48502 c -4.20537,0 -8.26574,-0.47667 -12.18109,-1.43002 -3.87909,-0.95335 -7.3594,-2.47504 -10.44093,-4.56507 -3.04527,-2.09003 -5.45612,-4.80341 -7.23253,-8.14012 -1.77641,-3.37339 -2.66461,-7.48012 -2.66461,-12.32019 0,-5.31675 0.85195,-9.95516 2.55585,-13.91522 1.74016,-3.99673 4.13288,-7.31511 7.17815,-9.95515 3.04527,-2.676713 6.56184,-4.67508 10.54969,-5.9951 4.02411,-1.356687 8.32012,-2.03503 12.88803,-2.03503 4.13287,0 8.17511,0.531677 12.12671,1.59503 3.95161,1.063347 7.50443,2.731703 10.65846,5.00507 3.15403,2.273373 5.65551,5.22509 7.50442,8.85514 1.88517,3.59339 2.82775,7.93845 2.82775,13.0352 0,3.85006 -0.77944,7.55345 -2.33833,11.11017 -1.52264,3.55673 -3.75222,6.74678 -6.68873,9.57015 -2.90026,2.78671 -6.43495,5.00508 -10.60407,6.65511 -4.13287,1.68669 -8.8458,2.53003 -14.13877,2.53003 z m -0.48942,-12.15518 c 3.69783,0 6.83374,-0.56834 9.40772,-1.70503 2.57398,-1.17335 4.65854,-2.69504 6.25369,-4.56507 1.63139,-1.90669 2.80962,-3.97839 3.53469,-6.2151 0.76132,-2.2367 1.14198,-4.45507 1.14198,-6.6551 0,-3.08005 -0.59818,-5.68342 -1.79454,-7.81012 -1.16011,-2.16337 -2.719,-3.90506 -4.67667,-5.22508 -1.92142,-1.32002 -4.07849,-2.27337 -6.4712,-2.86004 -2.39271,-0.62335 -4.83981,-0.93502 -7.34129,-0.93502 -3.26279,0 -6.34431,0.71501 -9.24457,2.14503 -2.90026,1.39336 -5.25672,3.52006 -7.06939,6.3801 -1.77641,2.82338 -2.66461,6.39844 -2.66461,10.72517 0,3.52005 0.70694,6.5451 2.12081,9.07514 1.45013,2.49337 3.58908,4.40007 6.41683,5.72009 2.82775,1.28335 6.28994,1.92503 10.38655,1.92503 z m 67.4113,10.50516 c -6.30807,0 -11.49228,-1.06335 -15.55264,-3.19005 -4.02411,-2.1267 -7.01501,-5.29842 -8.97268,-9.51515 -1.95768,-4.2534 -2.93652,-9.49681 -2.93652,-15.73024 0,-2.60337 0.0906,-5.29842 0.2719,-8.08513 0.18127,-2.78671 0.43504,-5.57341 0.76132,-8.36012 0.32628,-2.78671 0.72507,-5.463423 1.19636,-8.03013 0.47129,-2.603373 0.97884,-4.96841 1.52264,-7.09511 0.54379,-2.163367 1.14197,-4.015063 1.79453,-5.555089 0.90633,-1.650025 1.9758,-2.933378 3.20841,-3.850059 1.23261,-0.916681 2.61024,-1.375022 4.13287,-1.375022 1.81267,0 3.17216,0.531675 4.07849,1.595025 0.94259,1.06335 1.41388,2.493372 1.41388,4.290066 0,0.843346 -0.0544,1.815029 -0.16314,2.915049 -0.0725,1.063353 -0.18127,2.21837 -0.32628,3.46505 -0.10876,1.21002 -0.23565,2.438373 -0.38066,3.68506 -0.10876,1.246687 -0.21752,2.456707 -0.32628,3.63006 -0.10876,1.13668 -0.16314,2.236697 -0.16314,3.30005 0,1.57669 0.0544,2.82338 0.16314,3.74006 0.10876,0.88001 0.45317,1.32002 1.03322,1.32002 0.50755,0 1.23261,-0.22 2.1752,-0.66001 0.97883,-0.47667 2.0483,-1.04502 3.20841,-1.70503 1.23261,-0.77001 2.80962,-1.46669 4.73105,-2.09003 1.95767,-0.660013 4.38664,-0.99002 7.2869,-0.99002 4.74917,0 8.80954,0.99002 12.18109,2.97005 3.37155,1.94336 5.94553,4.65673 7.72194,8.14012 1.81267,3.48339 2.719,7.55346 2.719,12.21019 0,4.21673 -0.77945,7.90179 -2.33834,11.05517 -1.52263,3.11672 -3.6797,5.72009 -6.4712,7.81012 -2.75525,2.05337 -5.99991,3.59339 -9.734,4.62008 -3.73409,0.99001 -7.81258,1.48502 -12.23547,1.48502 z m 1.46826,-8.52513 c 1.7039,0 3.46218,-0.25667 5.27484,-0.77001 1.84892,-0.51335 3.55282,-1.35669 5.11171,-2.53004 1.59515,-1.17335 2.90026,-2.69504 3.91535,-4.56507 1.01509,-1.9067 1.52264,-4.23507 1.52264,-6.98511 0,-3.37339 -0.56193,-6.23343 -1.68578,-8.58013 -1.12385,-2.38337 -2.7915,-4.1984 -5.00295,-5.44509 -2.21145,-1.24669 -4.98482,-1.87003 -8.32012,-1.87003 -2.93651,0 -5.56487,0.56834 -7.88508,1.70503 -2.28395,1.10001 -4.07849,2.6767 -5.3836,4.73007 -1.30512,2.0167 -1.95768,4.4184 -1.95768,7.20511 0,3.37339 0.47129,6.34343 1.41388,8.91014 0.97883,2.56671 2.50147,4.5834 4.56791,6.05009 2.10269,1.43003 4.91231,2.14504 8.42888,2.14504 z m 66.37814,10.17515 c -4.20537,0 -8.26574,-0.47667 -12.18109,-1.43002 -3.87909,-0.95335 -7.3594,-2.47504 -10.44093,-4.56507 -3.04527,-2.09003 -5.45612,-4.80341 -7.23253,-8.14012 -1.77641,-3.37339 -2.66461,-7.48012 -2.66461,-12.32019 0,-5.31675 0.85195,-9.95516 2.55585,-13.91522 1.74016,-3.99673 4.13288,-7.31511 7.17815,-9.95515 3.04527,-2.676713 6.56184,-4.67508 10.54969,-5.9951 4.02411,-1.356687 8.32012,-2.03503 12.88803,-2.03503 4.13287,0 8.17511,0.531677 12.12671,1.59503 3.95161,1.063347 7.50443,2.731703 10.65846,5.00507 3.15403,2.273373 5.65551,5.22509 7.50442,8.85514 1.88517,3.59339 2.82775,7.93845 2.82775,13.0352 0,3.85006 -0.77944,7.55345 -2.33833,11.11017 -1.52264,3.55673 -3.75221,6.74678 -6.68872,9.57015 -2.90026,2.78671 -6.43495,5.00508 -10.60408,6.65511 -4.13287,1.68669 -8.8458,2.53003 -14.13877,2.53003 z m -0.48942,-12.15518 c 3.69783,0 6.83374,-0.56834 9.40772,-1.70503 2.57398,-1.17335 4.65854,-2.69504 6.25369,-4.56507 1.63139,-1.90669 2.80962,-3.97839 3.53469,-6.2151 0.76132,-2.2367 1.14198,-4.45507 1.14198,-6.6551 0,-3.08005 -0.59818,-5.68342 -1.79454,-7.81012 -1.1601,-2.16337 -2.71899,-3.90506 -4.67667,-5.22508 -1.92142,-1.32002 -4.07849,-2.27337 -6.4712,-2.86004 -2.39271,-0.62335 -4.83981,-0.93502 -7.34129,-0.93502 -3.26279,0 -6.34431,0.71501 -9.24457,2.14503 -2.90026,1.39336 -5.25672,3.52006 -7.06939,6.3801 -1.77641,2.82338 -2.66461,6.39844 -2.66461,10.72517 0,3.52005 0.70694,6.5451 2.12081,9.07514 1.45013,2.49337 3.58908,4.40007 6.41683,5.72009 2.82775,1.28335 6.28994,1.92503 10.38655,1.92503 z m 52.0762,10.67016 c -1.05135,0 -1.99393,-0.22 -2.82776,-0.66001 -0.83382,-0.40334 -1.59514,-0.97168 -2.28395,-1.70503 -0.65256,-0.73334 -1.25074,-1.59502 -1.79454,-2.58504 -0.65255,-1.39335 -1.25073,-3.00671 -1.79453,-4.84007 -0.5438,-1.83336 -1.01509,-3.74006 -1.41388,-5.72009 -0.36253,-2.01669 -0.63443,-4.01506 -0.8157,-5.99509 -0.18127,-1.98003 -0.2719,-3.8134 -0.2719,-5.50009 0,-5.97675 1.10573,-11.03683 3.31718,-15.18023 2.21145,-4.1434 5.40173,-7.296783 9.57085,-9.46015 4.16913,-2.163367 9.17208,-3.24505 15.00885,-3.24505 2.46522,0 4.82168,0.183337 7.06938,0.55001 2.28395,0.366673 4.31414,0.916683 6.09055,1.65003 1.77641,0.696673 3.17216,1.576687 4.18725,2.64004 1.05134,1.02668 1.57701,2.21836 1.57701,3.57505 0,1.10002 -0.23565,1.99837 -0.70694,2.69505 -0.47129,0.66001 -1.08759,1.13668 -1.84891,1.43002 -0.72507,0.29333 -1.48639,0.44 -2.28396,0.44 -1.66765,0 -3.49843,-0.275 -5.49236,-0.82501 -1.95768,-0.58667 -4.51354,-0.88001 -7.66757,-0.88001 -4.74917,0 -8.32012,1.48502 -10.71283,4.45507 -2.35646,2.97005 -3.53469,7.00344 -3.53469,12.10018 0,1.83337 0.0906,3.61173 0.2719,5.33509 0.18127,1.68669 0.39879,3.31838 0.65256,4.89507 0.25377,1.54003 0.50754,2.97005 0.76131,4.29007 0.25377,1.32002 0.45317,2.49337 0.59818,3.52005 0.18127,1.02669 0.2719,1.87003 0.2719,2.53004 0,2.27337 -0.50754,3.92339 -1.52263,4.95008 -0.97884,1.02668 -2.4471,1.54002 -4.40477,1.54002 z m 70.51092,1.48502 c -4.20538,0 -8.26575,-0.47667 -12.1811,-1.43002 -3.87909,-0.95335 -7.3594,-2.47504 -10.44093,-4.56507 -3.04527,-2.09003 -5.45611,-4.80341 -7.23252,-8.14012 -1.77641,-3.37339 -2.66462,-7.48012 -2.66462,-12.32019 0,-5.31675 0.85195,-9.95516 2.55586,-13.91522 1.74015,-3.99673 4.13287,-7.31511 7.17814,-9.95515 3.04527,-2.676713 6.56184,-4.67508 10.54969,-5.9951 4.02411,-1.356687 8.32012,-2.03503 12.88803,-2.03503 4.13287,0 8.17511,0.531677 12.12671,1.59503 3.95161,1.063347 7.50443,2.731703 10.65846,5.00507 3.15403,2.273373 5.65551,5.22509 7.50442,8.85514 1.88517,3.59339 2.82776,7.93845 2.82776,13.0352 0,3.85006 -0.77945,7.55345 -2.33834,11.11017 -1.52263,3.55673 -3.75221,6.74678 -6.68872,9.57015 -2.90026,2.78671 -6.43495,5.00508 -10.60408,6.65511 -4.13287,1.68669 -8.84579,2.53003 -14.13876,2.53003 z m -0.48942,-12.15518 c 3.69783,0 6.83373,-0.56834 9.40771,-1.70503 2.57398,-1.17335 4.65854,-2.69504 6.25369,-4.56507 1.63139,-1.90669 2.80962,-3.97839 3.53469,-6.2151 0.76132,-2.2367 1.14198,-4.45507 1.14198,-6.6551 0,-3.08005 -0.59818,-5.68342 -1.79454,-7.81012 -1.1601,-2.16337 -2.71899,-3.90506 -4.67667,-5.22508 -1.92142,-1.32002 -4.07849,-2.27337 -6.4712,-2.86004 -2.39271,-0.62335 -4.83981,-0.93502 -7.34128,-0.93502 -3.26279,0 -6.34432,0.71501 -9.24458,2.14503 -2.90026,1.39336 -5.25672,3.52006 -7.06939,6.3801 -1.77641,2.82338 -2.66461,6.39844 -2.66461,10.72517 0,3.52005 0.70694,6.5451 2.12082,9.07514 1.45013,2.49337 3.58907,4.40007 6.41682,5.72009 2.82775,1.28335 6.28994,1.92503 10.38656,1.92503 z m 62.46271,11.11017 c -2.2477,0 -4.58603,-0.11 -7.015,-0.33001 -2.42897,-0.18333 -4.71292,-0.47667 -6.85186,-0.88001 -2.13895,-0.40334 -3.95161,-0.89835 -5.43799,-1.48502 -1.34137,-0.55001 -2.4471,-1.17336 -3.31717,-1.87003 -0.83383,-0.69668 -1.25074,-1.6867 -1.25074,-2.97005 0,-1.43002 0.41691,-2.5117 1.25074,-3.24505 0.83382,-0.77001 2.0483,-1.15502 3.64345,-1.15502 1.12385,0 2.5196,0.20167 4.18725,0.60501 1.7039,0.36667 3.62532,0.77001 5.76427,1.21002 2.13894,0.40334 4.40477,0.60501 6.79748,0.60501 2.35646,0 4.60416,-0.20167 6.7431,-0.60501 2.13895,-0.44001 3.8791,-1.15502 5.22047,-2.14503 1.34137,-0.99001 2.01206,-2.3467 2.01206,-4.07006 0,-1.57669 -0.43504,-2.86005 -1.30512,-3.85006 -0.83383,-0.99002 -2.30208,-1.8517 -4.40477,-2.58504 -2.10269,-0.73335 -5.05733,-1.48503 -8.86392,-2.25504 -4.16912,-0.84335 -7.70381,-1.94336 -10.60407,-3.30005 -2.86401,-1.35669 -5.05733,-3.02505 -6.57997,-5.00508 -1.48638,-2.01669 -2.22957,-4.4184 -2.22957,-7.20511 0,-2.42003 0.67068,-4.51006 2.01205,-6.27009 1.37763,-1.7967 3.24467,-3.26339 5.60113,-4.40007 2.35646,-1.173353 5.0392,-2.035033 8.04822,-2.58504 3.04527,-0.58668 6.23556,-0.88002 9.57086,-0.88002 2.03018,0 4.09661,0.128337 6.1993,0.38501 2.13894,0.22 4.11474,0.56834 5.92741,1.04502 1.84891,0.440007 3.3353,1.02668 4.45915,1.76002 1.12385,0.69668 1.68577,1.540027 1.68577,2.53004 0,1.06335 -0.25377,1.92503 -0.76131,2.58504 -0.50755,0.66001 -1.17823,1.13669 -2.01206,1.43002 -0.79757,0.29334 -1.68578,0.44001 -2.66461,0.44001 -1.55889,0 -3.35343,-0.18334 -5.38361,-0.55001 -1.99393,-0.36667 -4.16912,-0.55001 -6.52559,-0.55001 -2.06643,0 -3.98785,0.22 -5.76426,0.66001 -1.77641,0.40334 -3.20842,1.06335 -4.29601,1.98003 -1.05135,0.88002 -1.57702,2.05337 -1.57702,3.52006 0,2.16337 1.1601,3.83173 3.48031,5.00508 2.35647,1.17335 5.80053,2.2367 10.33218,3.19005 4.20537,0.84335 7.68568,1.92503 10.44093,3.24505 2.7915,1.28335 4.89419,2.93338 6.30807,4.95007 1.41387,1.98003 2.12081,4.45507 2.12081,7.42512 0,2.82337 -0.67068,5.22508 -2.01205,7.20511 -1.34137,1.98003 -3.17216,3.59338 -5.49237,4.84007 -2.32021,1.21002 -4.98482,2.10837 -7.99384,2.69504 -3.00902,0.58668 -6.16305,0.88002 -9.4621,0.88002 z"
     id="text5"
     style="font-size:110px;font-family:Gluten;-inkscape-font-specification:Gluten;letter-spacing:-2px;fill:url(#linearGradient11);stroke:url(#linearGradient13);stroke-width:0.9;stroke-dasharray:none"
     class="word"
     aria-label="ouroboros"
     sodipodi:nodetypes="scccscccssscscccsscccscccsccsccsscscscsccssccccccccscccccccssccccccccsscccscssssscccsccscscsccscscsscccscccssscscccsscccscccsccsccssccssscccsscsccccscscccsccscccsscccscssccsccsscccscccssscscccsscccscccsccsccsscccscssssscccsccscscsccscscsscccscccssscscccsscccscccsccsccsscsccscsccscsscssccscccscccsscscsccsccccsscss" />
  <metadata
     id="metadata5">
    <rdf:RDF>
      <cc:Work
         rdf:about="">
        <dc:title>Ouroboros — logo dourado</dc:title>
      </cc:Work>
    </rdf:RDF>
  </metadata>
</svg>
